<svg width="70" height="70" viewBox="0 0 70 70" fill="none" xmlns="http://www.w3.org/2000/svg">
<g filter="url(#filter0_d_0_16)">
<path fill-rule="evenodd" clip-rule="evenodd" d="M35 35C43.2843 35 50 28.2843 50 20C50 11.7157 43.2843 5 35 5C26.7157 5 20 11.7157 20 20C20 28.2843 26.7157 35 35 35Z" fill="url(#paint0_linear_0_16)"/>
</g>
<path fill-rule="evenodd" clip-rule="evenodd" d="M41.7184 19.4385C41.9739 19.1971 42.064 18.8457 41.9537 18.5175C41.8431 18.1892 41.5557 17.9554 41.2011 17.9065L38.0538 17.4657C37.9191 17.4459 37.8035 17.3654 37.7437 17.2488L36.3366 14.501C36.1788 14.1922 35.8573 14 35.5003 14C35.1431 14 34.8229 14.1922 34.6637 14.501L33.2567 17.2488C33.1968 17.3654 33.0813 17.4472 32.9466 17.4657L29.7993 17.9065C29.4446 17.9554 29.156 18.1892 29.0457 18.5175C28.9363 18.8457 29.0265 19.1984 29.2819 19.4385L31.5597 21.5766C31.6564 21.6684 31.701 21.7995 31.6779 21.928L31.1403 24.9479C31.0934 25.2138 31.1657 25.4733 31.3437 25.6765C31.6222 25.995 32.1064 26.0919 32.494 25.8947L35.3084 24.4692C35.4265 24.409 35.5739 24.4103 35.692 24.4692L38.5077 25.8947C38.6437 25.9643 38.7898 26 38.9411 26C39.2158 26 39.4774 25.8824 39.6567 25.6765C39.8347 25.4733 39.9073 25.2138 39.8601 24.9479L39.3225 21.928C39.2994 21.7995 39.344 21.6684 39.4406 21.5766L41.7184 19.4385Z" fill="white"/>
<defs>
<filter id="filter0_d_0_16" x="0" y="0" width="70" height="70" filterUnits="userSpaceOnUse" color-interpolation-filters="sRGB">
<feFlood flood-opacity="0" result="BackgroundImageFix"/>
<feColorMatrix in="SourceAlpha" type="matrix" values="0 0 0 0 0 0 0 0 0 0 0 0 0 0 0 0 0 0 127 0" result="hardAlpha"/>
<feOffset dy="15"/>
<feGaussianBlur stdDeviation="10"/>
<feColorMatrix type="matrix" values="0 0 0 0 0.917647 0 0 0 0 0.658824 0 0 0 0 0.623529 0 0 0 0.2 0"/>
<feBlend mode="normal" in2="BackgroundImageFix" result="effect1_dropShadow_0_16"/>
<feBlend mode="normal" in="SourceGraphic" in2="effect1_dropShadow_0_16" result="shape"/>
</filter>
<linearGradient id="paint0_linear_0_16" x1="50" y1="5" x2="20" y2="5" gradientUnits="userSpaceOnUse">
<stop stop-color="#ECBCB3"/>
<stop offset="1" stop-color="#EAA79E"/>
</linearGradient>
</defs>
</svg>
